<svg width="27" height="27" viewBox="0 0 27 27" fill="none" xmlns="http://www.w3.org/2000/svg">
    <path d="M13.5 0.5C20.6797 0.5 26.5 6.3203 26.5 13.5C26.5 20.6797 20.6797 26.5 13.5 26.5C6.3203 26.5 0.5 20.6797 0.5 13.5C0.5 6.3203 6.3203 0.5 13.5 0.5Z" fill="#2C2C2C"/>
    <path d="M13.5 0.5C20.6797 0.5 26.5 6.3203 26.5 13.5C26.5 20.6797 20.6797 26.5 13.5 26.5C6.3203 26.5 0.5 20.6797 0.5 13.5C0.5 6.3203 6.3203 0.5 13.5 0.5Z" stroke="#2C2C2C" stroke-linecap="round"/>
    <path d="M6 8.50008H7.66667M7.66667 8.50008H21M7.66667 8.50008L7.66667 20.1667C7.66667 20.6088 7.84226 21.0327 8.15482 21.3453C8.46738 21.6578 8.89131 21.8334 9.33333 21.8334H17.6667C18.1087 21.8334 18.5326 21.6578 18.8452 21.3453C19.1577 21.0327 19.3333 20.6088 19.3333 20.1667V8.50008M10.1667 8.50008V6.83341C10.1667 6.39139 10.3423 5.96746 10.6548 5.6549C10.9674 5.34234 11.3913 5.16675 11.8333 5.16675H15.1667C15.6087 5.16675 16.0326 5.34234 16.3452 5.6549C16.6577 5.96746 16.8333 6.39139 16.8333 6.83341V8.50008" stroke="#F5F5F5" stroke-width="2" stroke-linecap="round" stroke-linejoin="round"/>
</svg>
